<svg xmlns="http://www.w3.org/2000/svg" width="32" height="32"><path fill-rule="evenodd" d="M12.714 1026.675c-1.626 0-3.005 1.037-3.54 2.48a3.779 3.779 0 0 0-3.24 2.305c-.27.647-.34 1.34-.242 2.006a4.595 4.595 0 0 0-1.606 4.441 4.6 4.6 0 0 0 1.602 2.67 3.776 3.776 0 0 0 1.117 3.271 3.784 3.784 0 0 0 2.372 1.038 3.782 3.782 0 0 0 4.032 2.445 3.783 3.783 0 0 0 2.791-1.889 3.783 3.783 0 0 0 2.791 1.889 3.782 3.782 0 0 0 4.032-2.445 3.785 3.785 0 0 0 2.372-1.038 3.776 3.776 0 0 0 1.117-3.271 4.6 4.6 0 0 0 1.602-2.67 4.595 4.595 0 0 0-1.606-4.441 3.762 3.762 0 0 0-.242-2.006 3.778 3.778 0 0 0-3.239-2.305 3.785 3.785 0 0 0-3.541-2.48c-1.414 0-2.636.789-3.286 1.941-.65-1.152-1.872-1.941-3.286-1.941zm0 1a2.776 2.776 0 0 1 2.786 2.781.5.5 0 0 0 0 .033v13.092c0 1.4-1.032 2.575-2.422 2.758a2.78 2.78 0 0 1-2.86-1.528c.063-.013.127-.02.19-.037a.5.5 0 0 0-.258-.967 2.775 2.775 0 0 1-3.503-2.634c.246.116.5.219.768.29a.5.5 0 0 0 .258-.966 3.601 3.601 0 0 1-2.606-2.783 3.593 3.593 0 0 1 .943-3.194c.183.39.425.756.74 1.07a.5.5 0 1 0 .708-.706 2.777 2.777 0 0 1 1.5-4.705c-.007.093-.03.182-.03.277a.5.5 0 1 0 1 0 2.776 2.776 0 0 1 2.786-2.781zm6.572 0a2.777 2.777 0 0 1 2.787 2.781.5.5 0 1 0 1 0c0-.095-.022-.184-.03-.277a2.778 2.778 0 0 1 1.5 4.705.5.5 0 1 0 .706.707 3.76 3.76 0 0 0 .74-1.07 3.593 3.593 0 0 1 .944 3.193 3.601 3.601 0 0 1-2.606 2.783.5.5 0 0 0 .258.967c.269-.072.522-.175.768-.291a2.776 2.776 0 0 1-3.503 2.635.5.5 0 1 0-.257.966c.062.017.126.024.189.037a2.78 2.78 0 0 1-2.86 1.528 2.777 2.777 0 0 1-2.422-2.758v-13.125a2.776 2.776 0 0 1 2.786-2.781zm-6.622.64a.5.5 0 1 0 .05 1c.638 0 1.143.505 1.143 1.141a.5.5 0 1 0 1 0 2.15 2.15 0 0 0-2.143-2.14.5.5 0 0 0-.05 0zm6.622 0a2.15 2.15 0 0 0-2.143 2.141.5.5 0 1 0 1 0c0-.636.505-1.14 1.143-1.14a.5.5 0 1 0 0-1zm-9.617 3.157a.5.5 0 0 0-.479.66c.069.205.155.401.256.59a4.608 4.608 0 0 0-1.267.039.5.5 0 1 0 .181.982c.844-.155 1.713 0 2.456.424a.5.5 0 0 0 .02.01.5.5 0 0 0 .01.01.5.5 0 0 0 .034.016.5.5 0 0 0 .04.014.5.5 0 0 0 .013.01.5.5 0 0 0 .023.01.5.5 0 0 0 .034.01.5.5 0 0 0 .048.01.5.5 0 0 0 .05 0 .5.5 0 0 0 .036 0 .5.5 0 0 0 .098-.02.5.5 0 0 0 .014 0 .5.5 0 0 0 .078-.035.5.5 0 0 0 .012-.01.5.5 0 0 0 .03-.021.5.5 0 0 0 .01-.01.5.5 0 0 0 .03-.023.5.5 0 0 0 .01-.01.5.5 0 0 0 .027-.027.5.5 0 0 0 .008-.01.5.5 0 0 0 .078-.113.5.5 0 0 1 .002 0 .5.5 0 0 0 .004-.01.5.5 0 0 0 .03-.082.5.5 0 0 0 .003-.012.5.5 0 0 0 .008-.037.5.5 0 0 0 .002-.012.5.5 0 0 0 .004-.088.5.5 0 0 0 0-.012.5.5 0 0 0-.004-.04.5.5 0 0 0-.002-.011.5.5 0 0 0-.008-.037.5.5 0 0 0-.004-.012.5.5 0 0 0-.01-.035.5.5 0 0 0-.004-.012.5.5 0 0 0-.015-.035.5.5 0 0 0-.006-.012.5.5 0 0 0-.018-.033.5.5 0 0 0-.006-.01.5.5 0 0 0-.021-.031.5.5 0 0 0-.041-.047.5.5 0 0 0-.025-.027.5.5 0 0 0-.01-.01.5.5 0 0 0-.03-.023.5.5 0 0 0-.01-.01.5.5 0 0 0-.03-.02c-.56-.343-.98-.871-1.188-1.493a.5.5 0 0 0-.471-.343zm12.662 0a.5.5 0 0 0-.47.343 2.781 2.781 0 0 1-1.188 1.492.5.5 0 0 0-.014.01.5.5 0 0 0-.018.01.5.5 0 0 0-.01.01.5.5 0 0 0-.029.023.5.5 0 0 0-.01.01.5.5 0 0 0-.025.027.5.5 0 0 0-.053.064.5.5 0 0 0-.013.02.5.5 0 0 0-.014.024.5.5 0 0 0-.008.016.5.5 0 0 0-.01.02.5.5 0 0 0-.011.032.5.5 0 0 0-.002 0 .5.5 0 0 0-.01.034.5.5 0 0 0-.01.04.5.5 0 0 0-.002.014.5.5 0 0 0-.004.023.5.5 0 0 0-.002.023.5.5 0 0 0 0 .012.5.5 0 0 0 .006.096.5.5 0 0 0 .002.014.5.5 0 0 0 .006.027.5.5 0 0 0 .004.012.5.5 0 0 0 .033.092.5.5 0 0 0 .002 0 .5.5 0 0 0 .002 0 .5.5 0 0 0 .076.11.5.5 0 0 0 .008.01.5.5 0 0 0 .027.027.5.5 0 0 0 .01.01.5.5 0 0 0 .03.023.5.5 0 0 0 .01.01.5.5 0 0 0 .03.02.5.5 0 0 0 .012.01.5.5 0 0 0 .094.04.5.5 0 0 0 .133.023.5.5 0 0 0 .012 0 .5.5 0 0 0 .037 0 .5.5 0 0 0 .013 0 .5.5 0 0 0 .035-.01.5.5 0 0 0 .014 0 .5.5 0 0 0 .035-.01.5.5 0 0 0 .014 0 .5.5 0 0 0 .111-.05h.008a.5.5 0 0 0 .004 0 3.61 3.61 0 0 1 2.444-.417.5.5 0 1 0 .181-.983 4.608 4.608 0 0 0-1.267-.039c.1-.188.187-.384.255-.59a.5.5 0 0 0-.478-.66zm-9.204 1.554a.5.5 0 0 0-.41.756c.538.932.384 2.1-.378 2.861a.5.5 0 1 0 .707.71 3.373 3.373 0 0 0 .538-4.07.5.5 0 0 0-.457-.257zm5.696 0a.5.5 0 0 0-.407.256 3.373 3.373 0 0 0 .538 4.07.5.5 0 1 0 .707-.709 2.363 2.363 0 0 1-.377-2.86.5.5 0 0 0-.41-.757.5.5 0 0 0-.051 0zm-12.625 3.819a.5.5 0 0 0-.442.636c.154.572.457 1.094.876 1.512a.5.5 0 1 0 .705-.707 2.373 2.373 0 0 1-.614-1.064.5.5 0 0 0-.474-.377.5.5 0 0 0-.051 0zm19.551 0a.5.5 0 0 0-.472.377c-.108.402-.319.77-.614 1.064a.5.5 0 1 0 .705.707c.42-.418.722-.94.876-1.512a.5.5 0 0 0-.493-.636.5.5 0 0 1-.002 0zm-13.853 3.773a.5.5 0 0 0-.086.01.5.5 0 0 0-.002 0 .5.5 0 0 0-.137.045.5.5 0 0 0-.008 0 .5.5 0 0 0-.007 0 .5.5 0 0 0-.018.01.5.5 0 0 0-.012.01 3.615 3.615 0 0 1-2.445.418.5.5 0 1 0-.18.982 4.57 4.57 0 0 0 1.268.04 3.774 3.774 0 0 0-.256.59.5.5 0 1 0 .947.316 2.78 2.78 0 0 1 1.176-1.485.5.5 0 0 0 .006 0h.006a.5.5 0 0 0 .115-.094.5.5 0 0 0 .024-.027.5.5 0 0 0-.034-.654.5.5 0 0 0-.023-.024.5.5 0 0 0-.014-.012.5.5 0 0 0-.002 0 .5.5 0 0 0-.125-.078.5.5 0 0 0-.029-.012.5.5 0 0 0-.018-.01.5.5 0 0 0-.003 0 .5.5 0 0 0-.045-.012.5.5 0 0 0-.032-.01.5.5 0 0 0-.052-.01.5.5 0 0 0-.014 0zm8.19 0a.5.5 0 0 0-.128.023.5.5 0 0 0-.004 0 .5.5 0 0 0-.17.094.5.5 0 0 1-.002 0 .5.5 0 0 0 .076.815c.557.342.975.868 1.182 1.488a.5.5 0 1 0 .947-.317 3.774 3.774 0 0 0-.256-.59c.42.04.846.039 1.268-.038a.5.5 0 1 0-.18-.983c-.839.154-1.705 0-2.445-.418a.5.5 0 0 0-.006 0 .006.006 0 0 0-.006 0 .5.5 0 0 0-.018-.01.5.5 0 0 0-.011-.01.5.5 0 0 0-.004 0 .5.5 0 0 0-.14-.045.5.5 0 0 0-.085-.01.5.5 0 0 0-.014 0 .5.5 0 0 0-.004 0zm-5.737 2.457a.5.5 0 0 0-.492.506c0 .636-.505 1.143-1.143 1.143a.5.5 0 1 0 0 1 2.15 2.15 0 0 0 2.143-2.143.5.5 0 0 0-.508-.506zm3.253 0a.5.5 0 0 0-.46.506 2.15 2.15 0 0 0 2.144 2.143.5.5 0 1 0 0-1 1.136 1.136 0 0 1-1.143-1.143.5.5 0 0 0-.492-.506.5.5 0 0 0-.05 0z" color="#000" font-family="sans-serif" font-weight="400" overflow="visible" transform="translate(0 -1020.362)" style="line-height:normal;text-indent:0;text-align:start;text-decoration-line:none;text-decoration-style:solid;text-decoration-color:#000;text-transform:none;block-progression:tb;white-space:normal;isolation:auto;mix-blend-mode:normal;solid-color:#000;solid-opacity:1"/></svg>