<svg xmlns="http://www.w3.org/2000/svg" width="16" height="16"><path d="M7.5-.002v1h1v-1h-1zM3.404 1.693l-.707.707.707.707.707-.707-.707-.707zm9.192 0-.707.707.707.707.707-.707-.707-.707zm-4.569.305c-2.732 0-4.992 2.081-4.992 4.68 0 1.786.844 3.006 1.615 3.92.386.456.755.85 1.006 1.199.251.35.373.632.373.916v3.291h3.996V12.713c0-.284.124-.57.375-.922.252-.352.619-.747 1.004-1.205.772-.917 1.616-2.135 1.616-3.908 0-2.599-2.26-4.68-4.993-4.68zm0 1c2.23 0 3.993 1.662 3.993 3.68 0 1.464-.655 2.402-1.381 3.265-.363.432-.743.833-1.053 1.268-.31.435-.56.927-.56 1.502v.455a.5.5 0 0 0-.092-.008H8.5V8.998H9v-1H7v1h.5v4.162h-.434a.5.5 0 0 0-.037 0v-.447c0-.575-.25-1.067-.56-1.5-.31-.433-.692-.83-1.055-1.26-.725-.859-1.379-1.795-1.379-3.275 0-2.018 1.763-3.68 3.992-3.68zM1 5.998v1h1v-1H1zm13 0v1h1v-1h-1zm-4.975 8.154v.852H7.03v-.846a.5.5 0 0 0 .002 0 .5.5 0 0 0 .035.002h1.868a.5.5 0 0 0 .091-.008z" color="#000" font-family="sans-serif" font-weight="400" overflow="visible" style="line-height:normal;text-indent:0;text-align:start;text-decoration-line:none;text-decoration-style:solid;text-decoration-color:#000;text-transform:none;block-progression:tb;white-space:normal;isolation:auto;mix-blend-mode:normal;solid-color:#000;solid-opacity:1"/></svg>